<svg width="543" height="429" viewBox="0 0 543 429" fill="none" xmlns="http://www.w3.org/2000/svg">
<g clip-path="url(#clip0_404_4730)">
<path d="M-24.3837 421.633L-24.3837 423.601C4.96889 397.961 26.6035 340.332 31.0281 275.814C32.2091 258.343 38.7477 247.073 49.9574 243.185C58.2184 240.332 68.5917 241.512 79.9996 246.679C91.3575 251.847 102.665 260.411 112.696 271.483C116.53 275.715 121.398 280.538 126.611 285.656C150.751 309.426 183.742 342.006 168.599 370.894C160.289 386.691 144.605 389.644 128.035 392.745C111.22 395.894 93.8146 399.142 85.457 417.105C82.9498 422.519 81.179 428.769 80.1462 435.855L83.1464 435.855C84.1293 429.212 85.8002 423.404 88.1607 418.336C95.8803 401.751 111.811 398.749 128.626 395.599C145.195 392.498 162.305 389.3 171.254 372.223C183.054 349.683 168.156 325.765 149.571 304.997C136.443 288.511 120.022 273.402 110.433 262.28C77.4908 223.992 27.7346 212.18 21.5393 263.019C15.3939 313.068 -1.71789 358.689 -24.3338 387.479L-24.3837 421.633Z" fill="white" fill-opacity="0.25"/>
<path d="M510.607 333.002C511.443 327.244 513.213 321.24 515.081 314.891C518.277 304.015 521.522 292.893 520.441 282.115C521.375 272.519 520.637 263.07 515.868 254.408C510.165 244.073 496.349 240.678 486.171 244.958C454.261 258.394 452.59 306.476 416.206 313.12L416.157 313.12C400.964 317.253 383.608 308.69 372.249 299.291C353.025 283.296 337.194 254.163 333.949 227.832C333.998 226.652 333.998 225.421 334.048 224.241C334.343 213.709 334.637 202.045 333.851 190.48C333.753 170.795 331.835 150.322 322.148 134.672C306.907 109.967 267.769 116.857 274.703 140.086C273.866 141.168 273.129 142.35 272.637 143.579C270.621 148.403 270.178 156.621 279.767 168.038C290.14 180.441 294.811 192.006 294.565 204.407C294.32 215.333 290.239 227.144 281.39 242.696C273.522 256.475 261.919 269.713 249.578 283.69C230.599 305.295 210.932 327.687 205.376 352.982C201.984 368.485 202.476 386.251 206.9 405.838C209.064 415.434 212.161 425.523 216.192 435.956L219.339 435.956C215.16 425.277 211.964 414.991 209.752 405.198C205.426 386.054 204.933 368.681 208.228 353.622C213.635 329.065 233.008 306.968 251.79 285.609C264.179 271.485 275.931 258.148 283.945 244.123C293.091 228.127 297.27 215.873 297.515 204.457C297.81 191.267 292.894 179.112 282.028 166.119C275.194 157.95 272.932 150.567 275.391 144.711C277.603 139.495 283.454 136 291.123 135.41C299.827 134.721 312.561 138.215 319.986 150.174C332.622 170.598 331.785 200.323 331.146 224.191C331.097 226.652 330.999 229.063 330.949 231.426C330.311 259.969 347.273 296.042 370.382 315.236C381.985 324.882 399.931 333.642 415.616 329.36L415.665 329.36C431.349 324.931 441.92 308.641 452.098 292.844C459.473 281.475 466.406 270.747 474.961 264.546C483.123 258.591 491.629 256.228 498.856 257.853C504.953 259.231 509.919 263.267 513.606 269.91C521.227 283.641 516.655 299.143 512.279 314.104C510.361 320.551 508.591 326.653 507.706 332.608C505.199 349.734 507.116 369.912 513.066 389.4C518.72 407.806 527.717 424.096 538.682 435.907L542.763 435.907C531.258 424.292 521.768 407.56 515.917 388.514C510.116 369.715 508.198 349.488 510.607 333.002Z" fill="white" fill-opacity="0.25"/>
<path d="M19.5253 208.527C33.537 181.608 46.7639 156.115 62.5464 147.404C72.2817 142.04 80.6394 141.006 88.1125 144.204C108.223 152.965 118.007 191.794 126.661 226.047C133.151 251.883 138.805 274.178 147.95 283.085C158.914 293.765 170.616 297.948 182.711 295.536C217.326 288.696 245.056 230.624 252.725 212.956C264.919 184.955 262.904 164.924 245.597 141.351C243.433 138.398 240.876 135.297 238.172 132.001C226.323 117.532 211.622 99.4707 218.407 80.8189C223.718 66.2023 220.422 51.0937 208.868 37.1658C199.183 25.5521 183.99 15.2658 167.175 9.01627C161.078 6.75193 154.736 4.78434 148.589 2.86513C125.776 -4.22143 104.24 -10.9645 90.523 -32.3225C86.0968 -39.2123 81.7222 -47.4311 77.8374 -56.3885L74.6406 -56.3885C78.722 -46.7925 83.3448 -38.0318 88.0642 -30.6985C102.372 -8.455 125.431 -1.27007 147.754 5.71811C153.849 7.63893 160.143 9.55814 166.192 11.8209C182.564 17.8753 197.314 27.8149 206.656 39.085C214.227 48.1907 221.947 62.659 215.703 79.8335C208.328 100.061 223.619 118.811 235.96 133.87C238.615 137.118 241.123 140.219 243.285 143.122C259.855 165.663 261.773 184.905 250.07 211.775C245.695 221.815 236.451 241.304 223.668 259.118C209.556 278.705 195.593 289.975 182.219 292.633C171.108 294.798 160.291 290.91 150.064 280.969C141.509 272.652 135.708 249.621 129.561 225.308C120.76 190.367 110.78 150.799 89.3419 141.498C81.0825 137.907 71.6421 139.037 61.1688 144.796C44.6 153.949 31.1781 179.787 16.9682 207.15C4.28262 231.559 -8.74619 256.559 -24.3321 270.142L-24.3321 273.981C-7.46845 260.447 6.20005 234.217 19.5253 208.527Z" fill="white" fill-opacity="0.25"/>
<path d="M2.16694 152.826C10.0831 136.832 17.6062 121.723 27.5381 114.49C43.074 103.17 60.8738 98.741 77.6891 102.038C94.8476 105.384 110.09 116.556 120.514 133.437C124.693 140.228 128.725 153.466 133.003 167.541C141.557 195.692 151.244 227.581 168.059 231.813C173.565 233.192 178.531 232.552 182.809 229.894C194.265 222.807 198.641 202.778 202.131 186.734C203.655 179.795 204.933 173.792 206.556 170.1C215.26 150.119 213.784 135.798 201.443 118.967C199.574 116.457 197.51 113.996 195.298 111.34C189.544 104.499 183.547 97.4604 181.826 89.3417C180.99 85.3549 181.728 81.5649 182.514 77.5297C183.448 72.7075 184.431 67.6869 182.416 62.5695C174.548 42.1953 146.18 34.7136 123.366 28.7108C117.022 27.0367 111.025 25.4626 106.205 23.7886C74.8371 12.8636 31.9143 -2.0482 11.4108 -33.9377C7.42777 -40.1389 3.5446 -47.8173 0.299493 -56.1828L-2.84733 -56.1828C0.544402 -47.1771 4.67571 -38.9083 8.95204 -32.3137C29.9969 0.412886 73.5095 15.5698 105.271 26.5932C110.237 28.3157 116.286 29.8914 122.678 31.6138C144.852 37.4698 172.434 44.7047 179.76 63.7001C181.431 68.0804 180.596 72.4123 179.71 77.0378C178.924 81.1713 178.088 85.5017 179.022 90.0304C180.891 98.8878 187.087 106.221 193.084 113.308C195.248 115.867 197.313 118.328 199.083 120.739C210.735 136.587 212.063 150.071 203.852 168.968C202.131 172.905 200.803 179.058 199.231 186.144C195.838 201.695 191.61 220.987 181.235 227.433C177.596 229.697 173.565 230.189 168.747 229.009C153.504 225.17 143.671 192.787 135.805 166.704C131.282 151.842 127.397 138.998 123.021 131.911C112.106 114.341 96.2252 102.678 78.2288 99.1829C60.5789 95.738 41.9929 100.315 25.7673 112.127C15.2457 119.804 7.57599 135.208 -0.486838 151.547C-7.61674 165.967 -14.9432 180.682 -24.432 190.129L-24.432 194.264C-13.5656 184.568 -5.60103 168.524 2.16694 152.826Z" fill="white" fill-opacity="0.25"/>
<path d="M-3.09223 100.957L-1.61628 99.7277C17.1164 84.4224 38.3079 67.0979 63.7757 75.1199C70.0694 77.0891 76.2148 80.3856 82.1153 83.5354C95.1457 90.4752 108.618 97.6601 124.891 91.6557C134.773 88.0141 137.38 82.8467 137.872 79.1067C138.608 73.1023 134.38 66.606 125.973 60.8984C113.239 52.2361 97.996 48.3477 83.2464 44.6077C76.1165 42.7868 68.7417 40.9176 61.9083 38.5549C34.3748 28.9588 -2.05937 16.3098 -24.4303 -8.24645L-24.4303 -3.96614C-1.46964 19.5579 33.98 31.9102 60.9238 41.3111C67.9071 43.7223 75.3302 45.6415 82.5084 47.4623C97.0131 51.1539 111.961 54.9924 124.302 63.3579C131.627 68.3785 135.511 73.9877 134.922 78.7615C134.43 82.8967 130.595 86.39 123.859 88.8995C108.814 94.462 96.5217 87.8673 83.4929 80.9275C77.4442 77.7294 71.2005 74.3828 64.6619 72.3153L64.612 72.3153C37.6199 63.8498 15.7887 81.7146 -3.5337 97.4634L-5.00966 98.6939C-5.5011 99.0874 -6.18907 99.6777 -7.02532 100.366C-13.3673 105.632 -19.1695 110.209 -24.4303 114.048L-24.4303 117.739C-17.6936 112.915 -10.9585 107.503 -5.10795 102.631C-4.2717 101.892 -3.58367 101.352 -3.09223 100.957Z" fill="white" fill-opacity="0.25"/>
<path d="M459.317 231.137C464.764 217.548 466.643 205.215 464.66 196.412C461.834 183.883 452.202 176.985 442.859 170.355C439.527 167.945 436.019 165.437 432.954 162.738C424.951 155.67 420.789 147.198 416.363 138.215C411.749 128.855 407.017 119.186 397.591 111.34L397.377 111.209C392.315 108.137 387.606 106.06 383.388 104.973C366.111 97.4377 346.195 97.1103 339.565 114.23C331.231 135.803 360.858 159.985 368.516 178.591C378.943 203.846 364.48 228.797 371.836 254.695C377.092 273.223 397.468 285.233 405.803 283.963C406.807 283.819 407.841 283.569 408.838 283.285C409.464 283.261 410.053 283.203 410.675 283.108C419.219 281.83 428.42 276.067 437.329 266.417C446.107 256.979 454.089 244.125 459.317 231.137ZM413.703 139.573C418.054 148.421 422.555 157.541 430.991 165.008C434.164 167.808 437.709 170.35 441.145 172.792C450.419 179.425 459.193 185.729 461.764 197.085C465.558 213.861 453.383 244.746 435.198 264.446C426.757 273.591 418.134 279.017 410.282 280.198C401.878 281.471 395.317 273.93 390.752 257.916C387.6 246.826 386.202 235.216 384.887 223.949C383.076 208.941 381.247 193.447 375.242 178.848C373.049 173.537 370.06 168.361 367.15 163.392C359.65 150.559 352.594 138.406 358.34 123.552C360.139 118.918 362.323 115.175 364.759 112.535C371.765 104.945 381.939 105.308 395.839 113.674C404.66 121.16 409.274 130.521 413.703 139.573Z" fill="white" fill-opacity="0.25"/>
<path d="M108.765 355.73C109.552 354.45 110.141 353.023 110.585 351.497C113.337 341.852 110.486 330.483 102.815 320.345C93.8676 308.534 80.2974 300.857 68.2515 300.857C66.9722 300.857 65.6445 300.955 64.4151 301.103C59.1059 301.841 54.8779 304.597 51.7794 309.322C45.634 318.771 45.4858 334.863 48.4361 345.247C50.1569 351.251 55.2211 356.714 62.6942 360.602C69.4793 364.145 77.8386 366.163 85.6565 366.163C96.4231 366.114 104.881 362.325 108.765 355.73ZM51.288 344.46C48.8792 336.143 48.2395 320.247 54.2866 310.946C56.8936 306.959 60.4336 304.646 64.8582 304.056C65.9893 303.908 67.1204 303.81 68.2999 303.81C79.4612 303.81 92.1468 310.995 100.504 322.117C107.584 331.517 110.24 341.95 107.781 350.71C107.438 351.99 106.896 353.171 106.257 354.253C102.865 359.962 95.3919 363.21 85.6565 363.21C71.6932 363.161 54.5815 356.025 51.288 344.46Z" fill="white" fill-opacity="0.25"/>
<path d="M273.462 359.931C273.034 361.371 272.832 362.902 272.8 364.49C272.634 374.521 278.328 384.763 288.358 392.568C300.056 401.659 315.149 405.559 326.786 402.439C328.02 402.107 329.277 401.668 330.426 401.208C335.364 399.119 338.735 395.361 340.506 389.995C343.999 379.276 339.98 363.694 334.446 354.428C331.231 349.074 324.926 345.109 316.702 343.29C309.233 341.625 300.638 341.842 293.086 343.867C282.698 346.704 275.51 352.555 273.462 359.931ZM331.895 355.927C336.373 363.337 341.1 378.525 337.663 389.076C336.178 393.602 333.357 396.753 329.235 398.47C328.181 398.905 327.114 399.293 325.974 399.599C315.193 402.491 301.083 398.837 290.132 390.259C280.863 383.013 275.6 373.623 275.71 364.525C275.712 363.2 275.929 361.919 276.266 360.708C278.067 354.314 284.446 349.241 293.85 346.719C307.351 343.149 325.722 345.609 331.895 355.927Z" fill="white" fill-opacity="0.25"/>
<path d="M316.91 283.251C315.705 281.162 313.257 278.769 308.536 279.268C304.118 279.732 297.596 282.898 294.58 286.034C290.224 290.547 291.252 299.565 294.747 305.624C297.237 309.942 300.736 312.47 304.354 312.469C305.056 312.481 305.789 312.383 306.516 312.195C310.328 311.245 313.863 307.484 316.232 301.937C318.642 296.226 319.783 288.231 316.91 283.251ZM305.928 309.888C305.394 310.01 304.877 310.077 304.373 310.09C301.618 310.057 298.903 308.004 296.834 304.418C292.978 297.732 293.574 290.562 296.316 287.677C298.89 284.982 304.961 282.077 308.805 281.666C311.561 281.375 313.578 282.298 314.824 284.457C316.933 288.114 316.583 294.908 314 301.044C311.964 305.797 308.959 309.112 305.928 309.888Z" fill="white" fill-opacity="0.25"/>
<path d="M444.519 334.856C436.456 334.659 428.441 338.055 419.886 345.191C406.513 356.411 398.793 372.75 391.32 388.498C390.877 389.483 390.435 390.418 389.943 391.353C373.62 425.753 358.18 453.706 335.859 478.214C334.875 479.297 333.794 480.527 332.564 481.856C330.795 483.825 328.779 486.089 326.567 488.5L330.549 488.5C332.073 486.827 333.451 485.252 334.728 483.825C335.908 482.496 337.039 481.266 337.973 480.183C360.541 455.379 376.078 427.229 392.549 392.583C392.992 391.648 393.434 390.664 393.926 389.68C401.252 374.177 408.823 358.183 421.705 347.356C429.671 340.712 437.095 337.513 444.372 337.71C453.91 337.907 461.974 340.417 467.677 344.945C473.872 349.866 476.97 356.805 476.773 365.614C476.478 381.215 469.545 395.339 462.809 409.02C456.122 422.653 449.239 436.678 448.502 452.574C447.912 466.01 449.682 478.411 453.517 488.5L456.663 488.5C452.73 478.657 450.862 466.256 451.452 452.722C452.14 437.466 458.925 423.686 465.464 410.349C472.299 396.422 479.379 382.002 479.723 365.713C480.165 347.209 466.644 335.348 444.519 334.856Z" fill="white" fill-opacity="0.25"/>
</g>
<defs>
<clipPath id="clip0_404_4730">
<rect width="543" height="429" fill="white" transform="translate(543 429) rotate(-180)"/>
</clipPath>
</defs>
</svg>
